<svg width="227" height="171" viewBox="0 0 227 171" fill="none" xmlns="http://www.w3.org/2000/svg">
<path d="M-240.521 416.588C-266.19 387.167 -263.15 342.507 -233.729 316.837L109.372 17.4802C138.793 -8.18975 183.453 -5.14888 209.123 24.2722C234.793 53.6932 231.752 98.3533 202.331 124.023L-140.769 423.38C-170.19 449.05 -214.851 446.009 -240.521 416.588Z" fill="black"/>
<path d="M-208.869 395.486C-232.69 368.184 -229.868 326.742 -202.567 302.921L115.815 25.1316C143.117 1.31111 184.559 4.13287 208.38 31.4342C232.2 58.7356 229.379 100.178 202.077 123.999L-116.305 401.788C-143.606 425.609 -185.049 422.787 -208.869 395.486Z" fill="#21BBFF"/>
</svg>
