<svg width="538" height="538" viewBox="0 0 538 538" fill="none" xmlns="http://www.w3.org/2000/svg">
<path d="M305.725 147.741C305.725 151.099 305.993 168.993 309.308 168.513C311.3 168.204 310.299 162.219 309.829 156.107C309.491 151.7 309.684 143.055 307.443 143.082C306.2 143.103 306.087 144.869 305.725 147.741Z" fill="#191919"/>
<path d="M294.589 151.883C296.975 150.004 301.176 141.842 298.47 140.851C296.669 140.129 295.008 144.649 293.843 146.627C292.549 148.742 290.099 151.501 290.931 152.615C291.814 153.59 293.47 152.58 294.589 151.883Z" fill="#191919"/>
<path d="M313.176 137.432C317.535 140.701 329.481 141.026 329.148 137.969C329.001 136.643 326.875 136.479 324.819 136.358C321.419 136.451 318.044 135.745 314.966 134.297C311.936 132.955 311.579 132.904 311.01 133.492C310.111 134.627 312.328 136.868 313.176 137.432Z" fill="#191919"/>
<path d="M308.696 176.635C312.126 173.982 316.194 172.281 320.49 171.701C338.741 168.937 347.727 188.342 335.789 197.258C330.837 200.96 325.802 199.03 320.713 199.406C317.081 199.674 313.858 201.599 309.74 201.706C308.24 201.847 306.728 201.632 305.326 201.078C303.925 200.524 302.674 199.646 301.677 198.516C300.68 197.386 299.964 196.036 299.587 194.577C299.211 193.118 299.185 191.59 299.512 190.119C300.695 183.149 307.223 176.525 308.696 176.635ZM309.443 178.583C309.37 178.605 309.37 178.658 309.37 178.658C307.635 180.231 306.216 182.121 305.188 184.225C302.792 188.852 301.345 194.709 306.01 197.108C310.594 199.459 315.02 196.016 320.415 195.608C325.2 195.248 329.884 196.902 333.553 194.183C340.021 189.384 337.78 180.631 331.164 176.887C325.332 173.583 315.788 174.879 310.414 178.401C310.273 178.495 310.114 178.559 309.947 178.591C309.78 178.622 309.608 178.62 309.443 178.583Z" fill="#191919"/>
<path d="M308.992 183.248C308.992 185.47 309.346 197.054 312.199 196.579C313.667 196.335 313.469 194.094 313.469 192.017C313.308 188.8 312.984 185.594 312.497 182.411C312.333 181.533 311.539 179.056 310.334 179.238C309.129 179.421 308.992 182.021 308.992 183.248Z" fill="#191919"/>
<path d="M323.552 179.724C323.456 181.428 323.966 188.297 324.299 190.892C324.755 192.771 325.184 195.109 326.537 194.99C328.086 194.851 327.976 191.737 327.954 190.063C327.925 187.843 327.216 179.837 327.133 179.375C326.881 177.934 326.381 175.762 325.192 175.805C323.834 175.848 323.552 179.273 323.552 179.724Z" fill="#191919"/>
<path d="M387.072 157.06C396.861 150.704 394.856 133.54 383.191 130.561C388.937 117.616 378.921 100.336 364.529 105.09C364.529 88.0355 343.889 79.2722 332.283 92.2279C323.158 73.3862 295.703 82.1682 292.947 102.36C276.268 98.1971 267.542 114.438 270.629 130.733C254.541 133.272 248.757 155.887 262.343 165.018C251.586 173.137 260.349 190.884 273.541 192.127C273.541 200.383 284.352 205.343 292.426 205.106H292.544C294.517 210.098 298.029 214.33 302.572 217.188C307.114 220.045 312.45 221.38 317.803 220.998L318.847 231.598C318.877 231.923 319.031 232.224 319.276 232.439C319.522 232.654 319.84 232.766 320.167 232.753C320.493 232.739 320.801 232.601 321.028 232.366C321.255 232.132 321.383 231.819 321.386 231.493C321.185 218.057 321.217 218.398 320.415 217.775C319.341 216.916 318.399 217.984 313.847 217.37C310.33 216.92 306.971 215.637 304.05 213.628C301.129 211.618 298.73 208.939 297.053 205.815C293.655 198.901 293.261 192.017 292.724 184.252C292.697 183.836 292.537 183.44 292.268 183.121C291.998 182.803 291.634 182.579 291.229 182.483C288.856 182.097 286.706 180.856 285.184 178.994C284.733 176.982 284.957 174.878 285.82 173.005C286.684 171.133 288.139 169.597 289.962 168.633C290.275 168.448 290.527 168.176 290.686 167.849C290.845 167.522 290.905 167.156 290.858 166.795L288.692 145.038C295.59 143.084 300.862 136.181 302.724 129.442C306.064 130.308 309.559 130.394 312.938 129.694C316.316 128.993 319.488 127.523 322.208 125.4C323.632 126.955 325.399 128.157 327.367 128.913C329.336 129.669 331.454 129.958 333.553 129.756C333.537 131.595 333.939 133.414 334.73 135.075C335.52 136.736 336.678 138.195 338.116 139.343C337.048 142.601 336.944 146.099 337.818 149.415C338.692 152.73 340.506 155.723 343.041 158.032C343.292 158.274 343.607 158.441 343.949 158.513C344.291 158.584 344.646 158.558 344.974 158.436C345.301 158.315 345.588 158.104 345.801 157.826C346.013 157.549 346.143 157.217 346.176 156.869C346.265 154.442 346.93 152.07 348.116 149.95C349.877 147.602 354.131 148.206 356.029 150.433C357.375 151.987 358.259 153.887 358.581 155.918C358.902 157.949 358.648 160.029 357.848 161.923C357.047 163.817 355.732 165.449 354.051 166.634C352.371 167.818 350.392 168.508 348.339 168.625C348.091 168.641 347.848 168.707 347.626 168.82C347.404 168.932 347.206 169.088 347.046 169.278C346.885 169.468 346.765 169.689 346.692 169.927C346.619 170.165 346.595 170.415 346.621 170.663C347.268 176.356 347.118 182.111 346.176 187.762C344.195 199.513 342.198 199.819 334.903 207.761C334.723 207.96 334.59 208.196 334.513 208.453C334.436 208.71 334.417 208.98 334.457 209.245C334.903 213.411 335.279 217.606 336.025 221.747C336.323 223.55 336.823 225.313 337.517 227.003C337.565 227.292 337.724 227.55 337.962 227.721C338.199 227.893 338.495 227.964 338.784 227.918C339.08 227.862 339.343 227.696 339.523 227.455C339.702 227.213 339.784 226.913 339.753 226.613C339.753 220.709 340.346 227.005 338.336 209.599C341.586 205.767 340.405 205.858 341.32 206.057C350.561 207.745 362.58 205.192 365.578 196.196C367.675 196.599 369.837 196.506 371.892 195.924C373.946 195.342 375.836 194.288 377.411 192.845C378.985 191.403 380.2 189.612 380.958 187.616C381.717 185.62 381.998 183.474 381.779 181.35C392.15 178.508 393.406 164.632 386.704 157.224C386.841 157.209 386.969 157.152 387.072 157.06Z" fill="#191919"/>
<path d="M134.741 256.113C104.809 263.653 62.7663 261.411 39.6731 240.729C-5.28936 200.468 12.2962 132.509 66.0193 109.116C151.685 71.808 236.301 139.397 197.713 205.845C190.133 218.455 179.523 228.973 166.847 236.442C167.526 251.741 166.31 268.715 168.146 283.928C168.414 284.132 168.701 284.4 168.97 284.601C169.214 284.811 169.368 285.108 169.399 285.428C169.43 285.749 169.335 286.069 169.134 286.322C168.934 286.574 168.643 286.739 168.324 286.781C168.004 286.824 167.681 286.741 167.421 286.55L167.373 286.491L167.332 286.51C167.187 286.531 167.038 286.524 166.896 286.488C166.753 286.452 166.619 286.388 166.501 286.3C166.383 286.212 166.283 286.101 166.208 285.975C166.133 285.848 166.084 285.708 166.063 285.562L166.028 285.412C154.422 275.919 145.707 265.711 134.741 256.113ZM165.548 281.716C163.771 266.447 164.705 250.898 163.712 235.672L164.461 234.292C210.529 205.879 219.654 149.585 170.634 117.766C140.517 98.2105 100.214 98.3823 67.568 112.667C16.4913 135.051 -0.780226 199.387 42.1827 237.961C64.2371 257.764 106.003 260.07 134.781 252.922C135.02 252.85 135.273 252.84 135.517 252.892C135.762 252.945 135.988 253.059 136.177 253.223C146.295 261.967 154.157 271.651 165.548 281.716Z" fill="#191919"/>
<path d="M489.11 316.49C465.104 282.154 439.759 246.003 401.254 229.048C386.492 222.571 368.668 217.987 352.811 221.5C352.443 221.578 352.106 221.762 351.841 222.028C351.576 222.295 351.394 222.633 351.318 223.001C346.56 247.219 327.184 256.486 314.966 247.074C312.395 245.111 310.367 242.525 309.074 239.56C307.781 236.595 307.266 233.349 307.577 230.13C307.598 229.826 307.547 229.522 307.429 229.242C307.31 228.962 307.126 228.714 306.894 228.518C306.661 228.322 306.385 228.184 306.088 228.115C305.792 228.047 305.484 228.049 305.188 228.122C271.684 236.179 244.999 258.516 235.622 278.425C235.173 279.351 234.8 280.291 234.352 281.225C234.244 281.502 234.2 281.799 234.224 282.096C234.248 282.392 234.339 282.678 234.49 282.934C234.641 283.19 234.848 283.408 235.096 283.573C235.343 283.737 235.625 283.843 235.919 283.882C265.921 286.789 297.091 286.298 326.835 290.273C332.656 291.048 340.644 291.242 347.81 292.721C358.179 294.868 363.426 298.725 367.291 309.23C371.097 319.716 369.897 324.145 379.009 349.141C384.235 363.39 390.207 377.371 395.059 391.755C395.166 392.059 395.37 392.32 395.64 392.497C395.91 392.674 396.23 392.758 396.552 392.735C409.703 391.699 423.599 390.362 436.933 390.158C437.234 390.158 437.524 390.038 437.737 389.825C437.951 389.611 438.071 389.322 438.071 389.02C438.071 388.718 437.951 388.429 437.737 388.215C437.524 388.002 437.234 387.882 436.933 387.882H435.478L432.829 385.829C432.981 385.637 433.075 385.406 433.101 385.163C433.127 384.92 433.084 384.674 432.976 384.454C430.829 380.767 428.62 376.172 424.388 367.975C439.815 344.686 460.369 328.909 488.208 319.179C488.466 319.089 488.7 318.94 488.892 318.745C489.084 318.55 489.229 318.314 489.316 318.055C489.403 317.796 489.429 317.52 489.394 317.249C489.358 316.978 489.261 316.718 489.11 316.49ZM420.512 360.645C420.372 360.732 420.216 360.791 420.054 360.817C419.891 360.844 419.724 360.837 419.564 360.797C419.404 360.758 419.254 360.686 419.122 360.587C418.99 360.488 418.879 360.363 418.797 360.221C417.455 358.342 416.032 356.517 414.838 354.584C411.759 349.825 399.982 328.705 396.997 320.054C396.86 319.791 396.83 319.484 396.914 319.198C396.998 318.913 397.19 318.672 397.448 318.525C397.722 318.391 398.037 318.367 398.328 318.458C398.619 318.548 398.865 318.745 399.016 319.01C403.954 326.88 399.08 318.111 410.734 339.618C416.639 350.529 414.953 346.478 420.885 358.943C421.056 359.22 421.112 359.552 421.042 359.869C420.973 360.187 420.783 360.465 420.512 360.645Z" fill="url(#paint0_linear_1327_17754)"/>
<path d="M366.918 335.678C358.275 310.354 360.535 307.638 355.049 302.206C348.508 295.547 333.846 296.202 325.794 295.383C298.417 292.801 274.167 291.754 246.97 290.503C235.407 289.967 212.598 282.489 207.708 299.897C207.024 303.124 206.875 306.441 207.268 309.716C208.235 314.132 209.481 318.483 210.999 322.741C211.235 323.595 212.609 326.534 213.986 326.123C215.637 325.565 214.254 320.927 213.911 319.786C213.143 316.96 212.416 313.991 211.538 311.57C225.715 312.182 350.006 318.339 358.673 318.761C367.162 355.784 384.273 392.823 381.559 404.482C380.394 409.351 376.674 411.41 371.781 412.395C370.772 412.602 369.75 412.743 368.722 412.819C368.399 412.847 368.101 413 367.889 413.245C367.678 413.49 367.57 413.808 367.59 414.131C367.609 414.454 367.753 414.756 367.992 414.975C368.231 415.193 368.546 415.309 368.869 415.299C376.519 415.079 383.167 412.848 385.067 405.368C387.051 398.162 384.648 390.128 366.918 335.678Z" fill="#191919"/>
<path d="M249.205 325.653C249.992 323.927 250.859 321.982 253.231 317.733C253.357 317.485 253.536 317.268 253.756 317.097C253.975 316.927 254.23 316.808 254.501 316.747C254.773 316.687 255.054 316.688 255.325 316.75C255.596 316.812 255.85 316.933 256.068 317.105C260.21 320.307 264.982 322.924 268.458 325.13C270.479 326.41 272.339 327.814 274.282 329.191C275.654 329.996 274.336 332.197 273.013 331.311C266.909 328.607 261.084 325.314 255.62 321.48C254.164 324.009 252.868 326.626 251.739 329.317C251.631 329.589 251.461 329.833 251.243 330.028C251.024 330.223 250.763 330.365 250.48 330.441C250.197 330.517 249.9 330.526 249.613 330.467C249.326 330.408 249.057 330.282 248.827 330.101C247.31 328.912 239.452 322.916 237.93 321.89C237.791 321.826 237.666 321.734 237.564 321.62C237.461 321.507 237.383 321.373 237.334 321.228C237.284 321.083 237.265 320.93 237.276 320.777C237.288 320.624 237.33 320.476 237.401 320.34C237.471 320.204 237.569 320.084 237.687 319.987C237.806 319.89 237.942 319.817 238.09 319.775C238.237 319.732 238.391 319.72 238.543 319.738C238.695 319.757 238.841 319.806 238.974 319.883C242.653 321.285 246.102 323.23 249.205 325.653Z" fill="#38A1FF"/>
<path d="M316.907 330.033C320.565 330.501 320.442 330.761 332.359 330.444C337.542 330.659 342.732 330.23 347.81 329.167C348.139 329.137 348.445 328.985 348.667 328.74C348.888 328.496 349.009 328.176 349.005 327.846C348.97 327.519 348.812 327.217 348.563 327.002C348.314 326.787 347.992 326.675 347.663 326.689C345.507 326.46 343.338 326.365 341.17 326.405C319.483 326.729 320.522 327.06 316.837 327.765C316.544 327.786 316.27 327.918 316.073 328.136C315.876 328.354 315.771 328.64 315.78 328.933C315.789 329.227 315.911 329.505 316.121 329.71C316.332 329.916 316.613 330.031 316.907 330.033Z" fill="#38A1FF"/>
<path d="M365.2 375.028C364.099 374.671 364.494 374.33 360.723 374.789C357.838 375.098 358.012 374.87 356.16 376.005C355.995 376.026 355.836 376.079 355.693 376.162C355.549 376.245 355.423 376.356 355.323 376.489C355.223 376.621 355.15 376.773 355.109 376.934C355.069 377.095 355.061 377.262 355.086 377.426C355.111 377.59 355.169 377.748 355.256 377.889C355.343 378.031 355.457 378.153 355.592 378.25C355.728 378.346 355.881 378.415 356.043 378.451C356.205 378.487 356.373 378.491 356.536 378.461C357.151 378.709 357.81 378.831 358.474 378.821C360.431 378.746 362.379 378.51 364.298 378.117C364.749 377.883 365.174 377.6 365.565 377.275C365.862 377.221 366.128 377.056 366.308 376.814C366.488 376.572 366.57 376.27 366.537 375.97C366.469 375.676 366.295 375.418 366.048 375.244C365.802 375.07 365.5 374.993 365.2 375.028Z" fill="#38A1FF"/>
<path d="M369.231 388.389C368.236 387.793 368.158 387.673 365.127 387.874C364.174 387.864 363.222 387.962 362.29 388.166C361.844 388.324 361.418 388.534 361.021 388.792C360.698 388.82 360.399 388.973 360.187 389.218C359.975 389.463 359.868 389.782 359.887 390.105C359.907 390.429 360.052 390.732 360.292 390.95C360.532 391.168 360.847 391.283 361.171 391.272C361.668 391.512 362.195 391.683 362.739 391.779C364.562 391.816 366.385 391.696 368.187 391.42C368.642 391.221 369.069 390.963 369.457 390.652C369.752 390.615 370.023 390.468 370.216 390.242C370.409 390.016 370.511 389.725 370.501 389.428C370.468 389.123 370.317 388.843 370.079 388.648C369.842 388.454 369.537 388.361 369.231 388.389Z" fill="#38A1FF"/>
<path d="M257.459 378.936C246.342 379.32 238.472 390.518 240.622 399.56C243.709 411.042 262.285 417.258 270.841 403.779C272.536 401.385 273.529 398.566 273.708 395.638C273.887 392.71 273.245 389.79 271.854 387.208C270.463 384.625 268.378 382.483 265.835 381.021C263.291 379.56 260.39 378.838 257.459 378.936Z" fill="#191919"/>
<path d="M274.668 357.456C271.157 357.239 267.663 358.106 264.66 359.939C263.145 360.872 261.869 362.144 260.931 363.656C259.994 365.168 259.422 366.877 259.26 368.648C259.186 368.94 259.229 369.248 259.379 369.508C259.53 369.768 259.776 369.96 260.065 370.041C260.126 370.041 260.126 370.06 260.126 370.06C260.159 370.355 260.293 370.629 260.505 370.837C260.718 371.044 260.996 371.17 261.291 371.195C268.713 372.486 274.354 366.947 276.456 359.885C276.536 359.605 276.551 359.31 276.499 359.024C276.448 358.737 276.331 358.466 276.159 358.232C275.986 357.997 275.762 357.805 275.504 357.671C275.245 357.536 274.96 357.463 274.668 357.456Z" fill="#191919"/>
<path d="M112.364 208.056C112.107 212.736 112.257 217.429 112.812 222.083C113 224.936 113 227.802 113.26 230.65C113.556 233.898 113.663 233.766 113.781 234.945C113.791 235.278 113.928 235.595 114.165 235.83C114.402 236.065 114.72 236.199 115.053 236.206C115.384 236.21 115.702 236.084 115.94 235.854C116.177 235.624 116.314 235.31 116.32 234.979C117.097 230.464 117.197 225.858 116.618 221.312C115.813 209.379 115.185 210.107 114.68 207.825C114.638 207.526 114.482 207.254 114.246 207.066C114.009 206.877 113.709 206.786 113.408 206.811C113.114 206.859 112.847 207.011 112.655 207.24C112.463 207.468 112.36 207.758 112.364 208.056Z" fill="#38A1FF"/>
<path d="M71.1886 218.204C72.7948 217.342 74.3217 216.34 75.7514 215.209C76.6801 214.498 88.9031 204.537 89.1715 204.299C89.6922 203.861 92.0407 201.478 92.3064 201.209C92.5687 201.001 92.7377 200.698 92.7762 200.365C92.8147 200.033 92.7196 199.699 92.5117 199.437C92.3038 199.174 92.0003 199.005 91.6678 198.967C91.3354 198.928 91.0012 199.023 90.7389 199.231C86.7296 201.402 82.9954 204.045 79.6164 207.106C75.8603 209.73 72.5137 212.895 69.6856 216.5C68.5771 217.523 70.115 219.192 71.1886 218.204Z" fill="#38A1FF"/>
<path d="M152.061 215.188C149.239 211.577 145.891 208.41 142.13 205.794C138.749 202.735 135.015 200.091 131.007 197.919C130.744 197.721 130.414 197.634 130.088 197.676C129.761 197.718 129.464 197.886 129.26 198.144C129.056 198.403 128.96 198.73 128.995 199.058C129.029 199.385 129.189 199.686 129.442 199.897C129.711 200.165 132.057 202.549 132.575 202.986C132.843 203.22 145.082 213.185 146.011 213.891C147.44 215.023 148.967 216.025 150.574 216.887C151.626 217.874 153.177 216.21 152.061 215.188Z" fill="#38A1FF"/>
<path d="M57.35 185.604C58.7191 186.17 60.1455 186.584 61.6041 186.842C67.4243 187.16 73.2593 187.083 79.069 186.611C80.6716 186.373 82.2473 185.98 83.774 185.438C84.052 185.438 84.3271 185.382 84.5829 185.273C84.8386 185.164 85.0699 185.005 85.2628 184.805C85.4556 184.604 85.6062 184.367 85.7055 184.108C85.8048 183.848 85.8508 183.571 85.8407 183.293C85.8306 183.016 85.7646 182.743 85.6467 182.491C85.5288 182.239 85.3614 182.014 85.1545 181.828C84.9476 181.643 84.7054 181.501 84.4424 181.411C84.1794 181.321 83.901 181.285 83.6237 181.305C81.8315 180.769 79.9706 180.498 78.1 180.499C75.5019 180.462 62.6831 180.711 61.4592 180.856C60.1207 181.09 58.7991 181.412 57.503 181.82C57.0207 181.831 56.5607 182.026 56.2166 182.364C55.8726 182.702 55.6702 183.158 55.6507 183.64C55.6312 184.122 55.7961 184.594 56.1117 184.959C56.4274 185.323 56.8701 185.554 57.35 185.604Z" fill="#38A1FF"/>
<path d="M164.302 181.256C162.919 181.008 161.524 180.828 160.123 180.72L143.402 180.414C141.628 180.419 139.857 180.556 138.104 180.824C137.941 180.817 137.779 180.843 137.627 180.9C137.475 180.956 137.336 181.043 137.217 181.154C137.099 181.265 137.004 181.399 136.938 181.548C136.873 181.696 136.837 181.856 136.834 182.019C136.829 182.345 136.951 182.662 137.173 182.901C137.396 183.14 137.702 183.285 138.028 183.304C139.578 183.661 141.149 183.92 142.731 184.08C148.545 184.467 154.375 184.551 160.198 184.332C161.632 184.157 163.054 183.888 164.452 183.527C164.749 183.502 165.025 183.361 165.219 183.135C165.413 182.909 165.511 182.615 165.492 182.318C165.472 182.02 165.336 181.743 165.114 181.544C164.891 181.346 164.6 181.242 164.302 181.256Z" fill="#38A1FF"/>
<path d="M72.0797 149.489C74.1088 153.515 72.1656 152.599 86.7075 163.931C88.1626 165.034 89.8073 165.862 91.5602 166.374C91.8357 166.633 92.1596 166.836 92.5135 166.971C92.8674 167.106 93.2443 167.169 93.6228 167.158C94.0012 167.147 94.3738 167.061 94.7192 166.906C95.0646 166.751 95.3761 166.53 95.6359 166.254C95.8957 165.979 96.0986 165.655 96.2332 165.301C96.3678 164.947 96.4314 164.57 96.4203 164.192C96.4092 163.813 96.3237 163.441 96.1686 163.095C96.0135 162.75 95.7919 162.438 95.5164 162.179C93.2485 158.002 93.9705 158.531 88.5756 154.065C85.5121 151.176 82.131 148.644 78.4972 146.517C77.5256 146.101 76.7069 145.959 75.7353 145.599C75.2196 145.115 74.5324 144.855 73.825 144.876C73.1175 144.898 72.4477 145.2 71.9629 145.716C71.4782 146.232 71.2182 146.919 71.24 147.627C71.2619 148.334 71.564 149.004 72.0797 149.489Z" fill="#38A1FF"/>
<path d="M147.06 145.39C145.495 146.28 143.997 147.285 142.581 148.396C130.717 158.171 131.109 157.253 127.354 162.066C126.192 163.11 127.827 164.983 129.072 163.864C133.476 160.777 129.128 164.369 143.179 152.758C145.292 151.167 147.132 149.244 148.628 147.062C148.837 146.851 148.961 146.569 148.975 146.271C148.989 145.974 148.892 145.682 148.703 145.452C148.491 145.23 148.201 145.099 147.894 145.087C147.587 145.076 147.288 145.184 147.06 145.39Z" fill="#38A1FF"/>
<path d="M121.012 142.003C120.859 140.344 120.612 138.782 120.451 137.322C120.016 134.761 119.914 129.587 116.999 127.906C116.794 127.745 116.535 127.668 116.275 127.692C116.345 127.463 116.341 127.218 116.263 126.992C116.184 126.766 116.036 126.57 115.839 126.434C115.642 126.298 115.406 126.229 115.167 126.236C114.928 126.243 114.697 126.326 114.509 126.473C107.879 130.768 106.379 143.149 106.075 151.048C105.562 155.313 106.228 159.638 108.003 163.55C108.428 164.515 109.117 165.342 109.989 165.936C110.861 166.529 111.883 166.866 112.937 166.908C113.991 166.949 115.036 166.694 115.953 166.171C116.869 165.648 117.621 164.879 118.121 163.95C121.731 158.134 121.648 148.823 121.012 142.003Z" fill="#38A1FF"/>
<path d="M454.1 387.232C449.985 387.184 446.539 386.964 436.066 387.463C435.865 386.839 435.639 386.224 435.387 385.619C435.355 385.547 429.643 373.133 429.264 372.401C426.809 366.359 420.915 363.637 428.669 380.23C429.76 382.782 431.015 385.261 432.426 387.651C428.416 387.877 423.545 388.188 417.525 388.628C409.374 388.975 401.263 389.962 393.267 391.581C393.114 391.593 392.966 391.635 392.83 391.706C392.694 391.776 392.574 391.873 392.477 391.991C392.379 392.109 392.307 392.246 392.263 392.392C392.219 392.539 392.206 392.693 392.223 392.845C392.265 393.143 392.42 393.413 392.657 393.599C392.893 393.785 393.193 393.872 393.492 393.843C404.174 393.505 439.472 391.428 454.25 389.718C454.577 389.695 454.883 389.547 455.105 389.306C455.327 389.064 455.449 388.747 455.444 388.419C455.411 388.088 455.254 387.782 455.005 387.562C454.755 387.342 454.432 387.224 454.1 387.232Z" fill="#191919"/>
<path d="M491.504 324.054C503.807 346.9 516.774 371.499 519.718 395.22C522.316 416.169 513.792 433.507 493.369 440.362C474.67 446.64 460.088 442.536 438.884 442.475C438.554 442.472 438.236 442.6 437.999 442.829C437.762 443.058 437.624 443.371 437.615 443.701C437.609 444.026 437.731 444.34 437.955 444.575C438.178 444.811 438.484 444.95 438.809 444.963C447.097 445.199 454.645 446.353 462.026 447.008C505.796 450.876 527.644 427.844 523.53 394.75C521.345 380.439 516.964 366.55 510.542 353.575C504.135 340.064 499.666 333.754 493.45 322.929C493.376 322.801 493.278 322.689 493.161 322.599C493.044 322.51 492.91 322.444 492.767 322.406C492.625 322.368 492.476 322.358 492.33 322.377C492.183 322.397 492.042 322.444 491.915 322.518C491.787 322.592 491.675 322.69 491.585 322.808C491.495 322.925 491.429 323.058 491.391 323.201C491.353 323.343 491.344 323.492 491.363 323.638C491.382 323.785 491.43 323.926 491.504 324.054Z" fill="#191919"/>
<path d="M317.186 154.258C317.186 156.04 317.596 157.748 318.326 159.008C319.056 160.268 320.045 160.976 321.078 160.976C322.11 160.976 323.1 160.268 323.83 159.008C324.559 157.748 324.969 156.04 324.969 154.258C324.969 152.476 324.559 150.767 323.83 149.508C323.1 148.248 322.11 147.54 321.078 147.54C320.045 147.54 319.056 148.248 318.326 149.508C317.596 150.767 317.186 152.476 317.186 154.258Z" fill="#191919"/>
<path d="M294.205 163.215C294.205 164.996 294.615 166.705 295.345 167.965C296.075 169.225 297.065 169.933 298.097 169.933C299.129 169.933 300.119 169.225 300.849 167.965C301.579 166.705 301.989 164.996 301.989 163.215C301.989 161.433 301.579 159.724 300.849 158.464C300.119 157.204 299.129 156.497 298.097 156.497C297.065 156.497 296.075 157.204 295.345 158.464C294.615 159.724 294.205 161.433 294.205 163.215Z" fill="#191919"/>
<path d="M209.122 451.686C204.686 451.612 200.373 450.217 196.733 447.679C193.152 445.02 190.594 441.212 189.486 436.892C160.166 333.257 163.213 343.706 163.213 342.603C162.795 340.56 162.861 338.448 163.405 336.435C163.949 334.422 164.957 332.564 166.347 331.011C167.933 329.695 169.77 328.716 171.747 328.132C173.723 327.548 175.797 327.373 177.843 327.615C184.411 327.825 319.738 335.917 321.169 336.005C325.661 335.945 330.081 337.136 333.934 339.446C335.905 340.731 337.555 342.449 338.758 344.47C339.961 346.491 340.685 348.761 340.875 351.106C342.365 363.836 366.91 426.886 371.703 439.042L421.937 441.686C429.498 442.077 431.924 452.69 424.552 455.642C422.525 456.456 436.63 452.8 209.122 451.686ZM165.456 342.12C165.11 340.475 165.159 338.772 165.601 337.151C166.042 335.53 166.863 334.037 167.995 332.795C169.362 331.746 170.923 330.978 172.589 330.537C174.255 330.096 175.991 329.991 177.698 330.227C181.383 330.401 320.893 339.779 321.161 339.752C324.913 339.69 328.609 340.672 331.835 342.589C333.345 343.574 334.608 344.892 335.527 346.442C336.447 347.992 336.997 349.733 337.136 351.53C338.696 364.977 363.439 429.057 368.56 441.589C368.704 441.932 368.941 442.227 369.245 442.44C369.549 442.654 369.907 442.778 370.278 442.797L421.706 445.513C422.376 445.539 423.024 445.754 423.577 446.133C424.129 446.512 424.563 447.04 424.829 447.655C425.094 448.271 425.18 448.948 425.076 449.61C424.972 450.272 424.683 450.891 424.243 451.396C423.61 451.974 422.786 452.295 421.929 452.298L209.047 448.004C205.414 447.948 201.879 446.81 198.896 444.735C195.957 442.569 193.85 439.46 192.927 435.928C192.849 435.66 165.725 342.12 165.456 342.12Z" fill="#191919"/>
<path d="M161.575 376.105C159.576 379.596 157.878 383.251 156.5 387.031C152.283 399.378 150.973 415.135 160.306 424.427C167.102 431.191 175.003 432.678 182.698 434.908C183.006 435.014 183.343 434.993 183.637 434.852C183.93 434.711 184.156 434.46 184.266 434.154C184.366 433.845 184.344 433.509 184.206 433.215C184.067 432.921 183.822 432.691 183.52 432.571C180.744 431.497 178.082 430.372 175.468 429.293C159.9 422.889 152.632 414.344 160.016 388.121C160.998 384.369 162.22 380.684 163.674 377.09C163.739 376.952 163.776 376.803 163.783 376.65C163.79 376.498 163.767 376.346 163.715 376.203C163.663 376.06 163.584 375.928 163.481 375.816C163.379 375.703 163.255 375.612 163.117 375.548C162.979 375.483 162.83 375.446 162.678 375.439C162.526 375.432 162.374 375.455 162.231 375.507C162.088 375.558 161.956 375.638 161.844 375.74C161.731 375.843 161.64 375.967 161.575 376.105Z" fill="#191919"/>
<defs>
<linearGradient id="paint0_linear_1327_17754" x1="361.813" y1="220.284" x2="361.813" y2="392.738" gradientUnits="userSpaceOnUse">
<stop/>
<stop offset="0.555" stop-color="#666666"/>
</linearGradient>
</defs>
</svg>
