<svg width="151" height="151" viewBox="0 0 151 151" fill="none" xmlns="http://www.w3.org/2000/svg">
<path d="M139.178 37.8482C139.178 38.4658 139.66 40.7405 138.606 40.861C135.932 41.2376 134.84 40.2735 134.651 41.6971C134.237 45.3878 135.457 45.546 131.985 45.4104C130.697 45.3653 117.29 45.2975 112.319 45.3502C111.708 45.3502 111.211 45.2824 110.323 46.4875C106.647 51.4437 102.399 55.5261 105.05 54.8633C109.004 53.8917 108.816 53.9218 108.003 54.916C106.135 57.1757 100.049 63.2014 99.1448 63.4349C99.3859 62.6139 104.5 57.2661 103.205 56.897C102.64 56.7313 101.743 57.3941 99.4386 57.5749C99.077 57.5749 106.971 47.6927 106.722 45.7042C106.474 44.5668 103.513 45.3577 100.478 45.1318C99.8905 45.0866 93.2923 45.1318 92.7048 45.1318C90.5808 45.1769 92.7048 40.5597 91.0402 40.6125C88.999 40.6652 86.8825 40.9363 86.8297 39.2717C86.5887 32.3723 86.4682 20.1476 86.4983 16.6752C86.5736 8.38987 85.6698 9.76072 89.1496 9.33139C90.3774 9.18075 90.6561 9.39918 90.9423 9.16568C91.6955 8.46519 91.1909 8.21663 91.5524 6.25073C91.7633 5.13597 91.1984 4.58613 93.6915 4.58613C93.7819 4.58613 122.314 3.99108 132.181 4.69158C134.478 4.84975 134.147 5.33934 134.207 6.91356C134.267 8.48779 134.026 8.93218 134.599 9.36905C134.9 9.72306 135.216 9.52722 136.173 9.59501C139.231 9.82098 139.329 9.42931 139.186 12.4648C139.095 13.346 139.163 37.0271 139.178 37.8482ZM129.492 27.1826C129.688 21.9704 122.238 22.2641 122.231 27.1299C122.223 31.6191 129.304 32.1237 129.492 27.1826ZM116.627 26.9115C116.656 26.0655 116.385 25.2365 115.861 24.5718C115.337 23.9071 114.594 23.4497 113.765 23.281C110.564 22.4675 108.214 26.4445 109.833 28.8548C111.648 31.4985 116.431 31.1973 116.627 26.9115ZM103.822 27.0696C104.259 23.9137 99.077 21.541 97.0434 25.277C94.0305 30.8658 103.589 33.2083 103.837 27.0998L103.822 27.0696Z" fill="white"/>
<path d="M76.1792 62.4255C76.1792 63.3369 74.9439 63.593 74.0325 63.7135C73.4073 63.6156 64.075 64.4668 44.7701 64.0751C42.2091 64.0073 42.2091 62.5009 42.4727 62.644C44.7851 63.6909 69.0839 62.8775 76.1792 62.4255Z" fill="white"/>
<path d="M76.6835 59.1645C76.3295 62.4786 77.0074 62.2376 49.0857 62.2301C42.0055 62.2301 41.772 62.6971 41.5535 58.464C41.433 56.3023 41.2372 49.222 41.6665 47.098C41.9528 45.6744 43.8132 45.7572 45.4853 45.6894C50.9085 45.471 73.8364 45.23 75.7571 45.9983C77.4142 46.6837 76.8568 57.3869 76.6835 59.1645ZM71.4713 54.4117C71.3734 54.1556 71.3884 53.8618 71.1323 53.6585C67.5395 50.962 64.8505 51.4515 62.4402 54.4117C62.0561 55.0067 62.3724 55.2779 63.1935 55.8051C64.4513 56.6186 64.0747 54.713 66.2063 54.1782C69.4376 53.4099 70.3415 57.6204 71.4713 54.4117ZM53.6879 54.8711C54.893 53.3647 48.1819 49.1994 44.8074 54.4719C44.348 55.082 45.0183 55.4059 45.6209 55.8503C46.6001 56.6035 46.6679 55.0971 47.8806 54.487C50.5469 53.199 52.3999 55.7449 52.8669 55.6545C53.1847 55.444 53.4627 55.1787 53.6879 54.8711Z" fill="white"/>
<path d="M95.7936 113.622C96.0421 114.077 96.1724 114.587 96.1724 115.106C96.1724 115.624 96.0421 116.134 95.7936 116.589C94.8144 118.307 94.2871 118.096 92.3966 118.668C90.6642 119.165 88.9242 119.655 87.6287 118.525C86.3332 117.395 85.9566 114.179 87.0864 112.612C88.2162 111.046 89.8281 111.106 91.2366 110.895C93.7147 111.106 93.9181 110.887 95.7936 113.622Z" fill="#E5F6FF"/>
<path d="M23.1903 68.0595C24.3201 68.8127 24.5009 68.3683 24.4633 69.0462C24.3352 71.7578 20.8252 72.6993 18.0233 72.6692C14.453 72.6692 10.4007 65.8902 20.3432 63.9168C21.3073 63.721 23.1075 64.0072 22.6932 64.9336C22.1433 65.9806 22.1208 67.3138 23.1903 68.0595Z" fill="#E5F6FF"/>
<path d="M37.69 46.4197C38.0139 46.4197 37.5846 46.8039 37.3435 55.3679C37.2004 60.4597 37.7729 64.512 37.4716 64.5044C36.515 64.5044 36.2062 63.8943 36.0179 62.9453C35.7086 61.1059 35.5499 59.2443 35.5433 57.379C35.5885 50.9767 35.1667 46.4047 37.69 46.4197Z" fill="#CCEEFF"/>
<path d="M86.001 48.9431C86.0764 49.636 86.0538 61.3485 85.4964 61.9662C85.4131 62.0762 85.3011 62.1612 85.1728 62.2119C85.0445 62.2627 84.9046 62.2772 84.7686 62.2538C84.6326 62.2305 84.5056 62.1703 84.4015 62.0797C84.2974 61.9891 84.2202 61.8717 84.1783 61.7402C83.9749 61.2129 83.6058 48.7623 84.7959 48.3028C85.6018 47.9714 85.8956 48.1898 86.001 48.9431Z" fill="#CCEEFF"/>
<path d="M84.8706 47.4367C84.5893 47.4381 84.3161 47.5316 84.093 47.703C83.8699 47.8744 83.7091 48.1143 83.6353 48.3858C83.1081 50.0202 82.7993 60.4372 83.5675 62.2901C83.9366 63.1714 84.7501 62.8626 84.622 63.3371C84.4262 64.0903 84.622 64.3765 82.4151 64.1506C80.6149 63.9698 80.8258 58.0269 80.8258 56.159C80.8258 49.5005 80.7505 47.03 82.3323 46.1487C84.622 44.808 85.895 47.3765 84.8706 47.4367Z" fill="#CCEEFF"/>
<path d="M73.2335 104.975C74.868 106.429 73.8436 105.322 69.0532 112.545C68.5259 113.336 68.6163 113.404 67.7727 112.59C67.4714 112.304 72.3372 104.162 73.2335 104.975Z" fill="#A1CFE5"/>
<path d="M54.9612 114.683C54.6825 115.346 54.9612 115.798 52.9953 112.205C52.6021 111.729 52.2421 111.225 51.9182 110.699C49.2669 106.458 48.9731 107.776 49.7339 106.18C49.877 105.863 53.8539 111.452 55.4056 112.861C55.6391 113.079 55.5412 113.32 54.9612 114.683Z" fill="#A1CFE5"/>
<path d="M23.9069 72.4961C24.1856 73.2493 24.1404 73.2041 23.8316 73.4526C22.3854 74.6503 17.5799 76.0362 17.6853 74.2887C17.4443 73.1288 19.2822 74.2134 22.8223 72.6316C23.3797 72.3831 23.7412 72.0592 23.9069 72.4961Z" fill="#A1CFE5"/>
<path d="M13.9411 65.3327C14.4608 66.1612 14.6341 65.4833 13.5871 66.9371C13.444 67.1781 13.3611 67.2685 13.1879 67.0425C10.3181 63.1484 11.5835 61.0168 12.1635 62.124C12.171 62.1391 13.3988 64.459 13.9411 65.3327Z" fill="#A1CFE5"/>
<path d="M25.7136 60.8663C26.4668 61.9735 26.0977 66.071 24.9604 67.3892C24.6214 68.0821 22.5501 67.5398 23.2882 65.4308C23.9768 64.0456 24.5317 62.5979 24.9453 61.1073C25.0809 60.6253 25.4575 60.4972 25.7136 60.8663Z" fill="#A1CFE5"/>
<path d="M20.9613 62.5008C21.0366 63.4273 20.645 62.7042 18.9126 63.3821C18.4305 63.465 18.9126 60.5199 19.018 60.0529C19.8541 56.8969 20.7203 57.1379 20.8709 57.6803C20.8709 57.7104 20.886 61.5518 20.9613 62.5008Z" fill="#A1CFE5"/>
<path d="M17.406 63.5102C17.632 64.0977 16.5473 64.0751 15.4326 65.0693C15.2593 65.22 14.9129 62.4858 15.4326 59.4654C15.7489 57.6727 16.7055 57.9589 16.8185 58.5766C17.0369 59.7516 17.0671 62.6289 17.406 63.5102Z" fill="#A1CFE5"/>
<path d="M98.5425 120.235C98.0454 119.482 96.5992 117.471 96.6971 117.139C97.1942 115.949 96.8478 114.503 98.4898 117.365C99.9962 119.964 99.1149 121.071 98.5425 120.235Z" fill="#A1CFE5"/>
<path d="M95.8537 121.719C96.042 124.34 95.0327 124.611 94.7992 124.076C94.7992 124.076 93.8577 120.024 93.7748 119.693C93.692 119.361 93.7221 119.346 93.8727 119.331C94.5732 119.256 95.0252 118.435 95.2587 118.917C95.6142 119.81 95.816 120.758 95.8537 121.719Z" fill="#A1CFE5"/>
<path d="M92.2298 120.348C92.275 121.267 92.3352 125.108 91.4238 125.048C90.761 125.003 90.8439 122.141 90.535 120.966C90.2262 119.791 90.3769 120.212 91.7101 119.949C92.1469 119.843 92.2147 119.888 92.2298 120.348Z" fill="#A1CFE5"/>
<path d="M85.6173 116.393C85.9939 118.254 86.4082 118.284 86.1822 118.653C85.7656 119.444 85.4081 120.265 85.1126 121.109C84.0129 123.014 84.0506 117.606 85.5269 116.122C85.5638 116.21 85.5939 116.301 85.6173 116.393Z" fill="#A1CFE5"/>
<path d="M93.7288 109.343C93.6158 110.85 93.5029 109.923 91.7102 109.976C90.7999 110.025 89.8939 110.136 88.9986 110.308C88.2981 110.406 87.7558 110.97 87.6805 110.669C87.5795 110.331 87.5163 109.982 87.4922 109.63C88.2379 108.522 93.8493 107.792 93.7288 109.343Z" fill="#A1CFE5"/>
<path d="M91.921 90.6786C92.7872 94.3166 92.5537 93.9927 91.6423 93.9927C90.4824 93.9927 89.9627 94.3467 88.6973 94.5652C85.1797 95.1828 85.6844 96.6139 85.3229 93.8119C84.6751 89.2926 83.131 90.6032 85.8275 88.9838C87.3312 88.2087 88.8778 87.5196 90.4598 86.92C90.8439 86.7618 91.7779 90.2492 91.921 90.6786Z" fill="#A1CFE5"/>
<path d="M80.7136 74.612C80.9396 74.8531 78.1677 76.0582 78.4539 80.2461C78.8833 87.2058 80.7136 84.6072 78.3033 89.0888C76.2395 92.9227 75.5465 75.2146 80.0508 74.0772C80.3445 74.0396 80.5479 74.4313 80.7136 74.612Z" fill="#A1CFE5"/>
<path d="M68.1571 69.7543C68.1571 71.1628 68.2325 71.2608 68.0065 71.3662C61.7849 74.2435 50.3888 72.1194 51.4357 71.6072V70.1008C51.4357 69.8598 51.3002 69.5133 51.7596 69.4907C53.5673 69.4078 68.1647 69.0086 68.1571 69.7543Z" fill="#A1CFE5"/>
<path d="M38.7146 88.5245C38.7146 89.0141 31.8754 95.1001 30.5648 95.3035C29.6383 95.4692 30.271 95.5897 28.4181 95.778C25.4053 95.778 22.9196 93.2849 22.1438 90.98C22.0459 90.6787 22.4677 90.7239 23.7256 90.5507C27.6197 90.0008 30.0149 86.7846 31.1523 85.5493C34.489 82.0619 32.9148 82.9884 35.6716 84.9769C36.8088 86.0482 37.8289 87.2374 38.7146 88.5245Z" fill="#A1CFE5"/>
<path d="M71.5243 96.192C71.5243 97.1335 71.0422 100.335 70.2664 100.862C69.3322 101.441 68.3167 101.878 67.2535 102.157C64.9939 102.481 54.6221 102.549 53.0177 101.706C51.8126 101.065 51.8954 100.508 51.3079 98.6927C50.1856 95.258 50.3062 95.1827 52.5131 93.0285C55.1343 90.4826 55.9553 89.1419 59.6611 88.8933C64.444 89.3377 67.6678 94.3541 71.0799 95.853C71.2983 95.9284 71.5167 95.9585 71.5243 96.192Z" fill="#CCEEFF"/>
<path d="M81.866 126.261C81.866 127.24 81.9414 127.978 81.1806 128.784C80.9471 129.033 80.9019 129.289 80.6157 129.191C74.59 127.059 71.0649 130.878 70.3644 130.878C66.3046 131.187 67.3516 123.655 67.4721 119.053C67.5851 114.789 73.3848 107.453 75.3507 106.444C76.1039 106.06 77.0153 107.197 77.4673 107.95C79.1771 110.654 79.5612 112.771 80.3144 115.859C80.932 118.443 81.8208 125.131 81.8208 125.169C81.9037 125.606 81.8434 126.261 81.866 126.261Z" fill="#E5F6FF"/>
<path d="M80.4572 130.072C81.572 130.516 81.0523 133.386 80.6832 133.77C76.6083 138.094 68.5489 133.597 70.3943 132.091C73.5276 129.537 77.6101 128.92 80.4572 130.072Z" fill="#E5F6FF"/>
<path d="M50.7885 134.177C50.0353 137.28 39.0609 139.54 38.9856 134.117C38.9856 133.062 39.0986 131.955 40.1154 131.654C46.2089 129.838 51.0145 133.303 50.7885 134.177Z" fill="#E5F6FF"/>
<path d="M54.6898 120.009C54.7501 121.712 54.4187 129.869 53.3039 131.142C52.3172 132.272 52.2268 132.031 51.1271 132.513C50.9011 132.656 45.5684 128.377 40.1678 130.682C39.6933 130.886 39.5351 130.803 38.8196 129.929C36.2436 125.877 44.8453 104.177 48.0314 107.438C49.528 108.901 50.7974 110.579 51.7975 112.417C54.5994 117.109 54.5919 117.591 54.6898 120.009Z" fill="#E5F6FF"/>
<path d="M95.7627 107.52C95.5878 107.782 95.3385 107.984 95.0472 108.102C94.7558 108.221 94.4357 108.249 94.1282 108.183C87.2589 105.479 83.8468 114.307 84.0803 103.189C84.2385 95.6571 84.9842 97.1635 88.2155 95.7776C89.1495 95.3709 92.8402 94.5499 93.7516 95.4688C95.0095 96.7417 97.1938 105.027 95.7627 107.52Z" fill="#E5F6FF"/>
<path d="M91.0251 85.0298C91.3716 86.0843 89.6769 85.6851 86.7092 87.3573C85.4869 87.9163 84.3215 88.5923 83.2294 89.3759C82.9959 89.6019 82.785 89.5943 82.6042 89.3156C80.1562 85.6399 77.6254 78.9363 80.9697 75.9009C84.4948 72.7072 89.6618 80.9173 91.0251 85.0298Z" fill="#E5F6FF"/>
<path d="M41.3274 84.0806C42.171 86.4457 42.3669 86.6491 42.0806 86.8751C40.1373 88.3212 41.6664 88.5773 36.9588 84.3292C36.2056 83.6664 33.7199 81.6402 33.1023 81.6101C31.9198 81.5573 41.6965 72.0141 40.2955 75.3132C39.4971 77.151 40.6495 82.1825 41.3274 84.0806Z" fill="#E5F6FF"/>
<path d="M29.2611 80.42C29.9013 83.8547 30.0143 84.9393 29.3892 86.1068C28.1313 88.3212 23.6346 90.3173 20.9908 89.7298C19.1228 89.3155 13.7223 78.2508 16.2907 76.1116C17.2925 75.2831 17.5863 75.7727 18.7537 75.8631C21.0526 75.954 23.296 75.1431 25.0054 73.6034C27.2877 71.404 28.6887 77.3318 29.2611 80.42Z" fill="#E5F6FF"/>
<path d="M72.6397 103.174C70.2746 104.395 66.9077 112.657 65.5745 113.546C65.5224 113.581 65.4766 113.624 65.4389 113.674C64.2714 115.181 60.9874 114.427 60.4526 114.51C57.0933 114.894 52.0769 107.144 50.8039 103.965C50.4725 103.137 50.8039 102.805 51.3764 102.075C51.6626 101.547 51.6099 102.624 54.6227 103.024C56.7091 103.461 69.5515 104.342 71.5023 101.013C71.9166 100.29 73.1971 102.881 72.6397 103.174Z" fill="#E5F6FF"/>
<path d="M77.8212 72.9708C78.0171 73.0687 79.0038 73.3625 78.9134 73.6487C78.9134 73.724 74.3941 77.6182 76.0964 88.6453C76.2731 89.3562 76.6494 90.0017 77.181 90.5057C77.4974 90.8898 73.7765 95.025 72.496 94.3998C68.3006 92.4415 66.3121 89.3533 61.5141 88.0728C53.8388 86.0165 50.0577 94.8518 49.2141 94.6333C44.2805 93.2775 40.3261 79.3054 41.2074 75.8632C41.8702 73.3022 47.3913 72.2854 49.3949 71.6452C49.6886 71.5246 49.9296 71.713 50.1104 71.9615C51.4813 74.2212 60.2638 74.2664 63.7662 73.8144C70.3719 72.9482 70.0179 70.3572 70.9444 70.6208C71.2155 70.6961 73.3245 70.7865 77.8212 72.9708Z" fill="#E5F6FF"/>
<path d="M81.9264 44.5967C82.0921 45.6587 81.2485 45.4327 80.8041 46.314C80.0509 47.6246 79.8701 51.0065 79.8776 52.5356C79.9228 59.8192 79.8098 64.3912 81.6552 64.9486C81.6906 64.9525 81.7248 64.9634 81.7558 64.9808C81.7868 64.9981 81.8141 65.0215 81.836 65.0495C81.8578 65.0776 81.8737 65.1099 81.8828 65.1443C81.8919 65.1787 81.8939 65.2146 81.8887 65.2498C81.8134 65.7319 81.8887 68.5791 81.7908 68.8803C81.1807 70.2663 82.1147 68.7824 76.1417 68.6694C62.3428 68.3983 48.9656 67.6903 41.7649 68.6167C39.3245 68.9331 38.8123 69.6034 38.8349 69.0913C38.9855 65.6867 36.9368 48.069 40.5597 41.4106C48.3028 27.1597 79.6215 29.5399 81.9264 44.5967ZM77.5351 60.6477C77.9479 56.0491 77.9328 51.422 77.4899 46.8262C77.0455 45.0034 75.8404 44.4234 66.5457 44.4912C64.1655 44.4912 42.3901 43.979 41.2527 45.9976C40.1154 46.5324 40.6426 58.953 40.8158 60.3088C41.0343 62.0411 41.5088 64.0748 43.1809 64.5644C45.1468 65.1218 75.1324 65.0465 76.0965 64.1954C77.4673 63.0354 77.279 62.3575 77.5351 60.6477Z" fill="#E5F6FF"/>
<path d="M49.8994 136.663C51.3913 139.399 52.1368 142.48 52.0611 145.596C51.8804 145.491 53.3039 146.59 48.3402 146.801C43.3765 147.012 40.8909 146.553 38.9401 146.553C36.9893 146.553 34.6468 147.087 35.0686 145.347C35.4904 143.608 36.7031 138.184 39.2188 136.633C41.7345 135.081 49.0257 135.089 49.8994 136.663Z" fill="#E5F6FF"/>
<path d="M70.6353 135.488C70.6353 135.488 67.6225 140.527 67.7354 145.596C67.9162 145.491 66.4926 146.59 71.5015 146.809C76.5104 147.027 78.9433 146.56 80.8941 146.56C82.845 146.56 84.2158 147.035 84.0802 145.25C83.907 143.095 82.9278 135.902 80.397 134.343C77.8662 132.784 71.5241 133.921 70.6353 135.488Z" fill="#E5F6FF"/>
<path d="M86.4819 34.2933C87.5364 40.1684 84.9001 40.8237 91.0012 40.6656C92.5904 40.6204 90.5643 45.1849 92.6507 45.1849C105.523 45.23 106.465 44.748 106.676 45.7272C106.886 47.6705 99.0606 57.628 99.392 57.6054C101.727 57.4246 102.631 56.7543 103.196 56.92C104.544 57.3116 99.3845 62.5691 99.1359 63.4579C100.04 63.262 106.118 57.161 107.994 54.939C108.83 53.9448 109.003 53.9372 105.034 54.8938C102.427 55.519 106.608 51.5345 110.306 46.5105C111.202 45.3054 111.7 45.3807 112.31 45.3732C117.273 45.3204 130.688 45.3732 131.976 45.4409C135.448 45.569 134.236 45.4409 134.643 41.7201C134.801 40.2965 135.923 41.2681 138.589 40.884C139.651 40.7333 139.177 38.4586 139.169 37.8711C139.169 36.8467 139.086 13.5573 139.169 12.5329C139.328 9.52007 139.215 9.88914 136.156 9.66318C135.2 9.59539 134.876 9.79122 134.582 9.43721C134.002 9.00035 134.251 8.59361 134.183 6.98173C134.115 5.18907 134.65 4.72208 130.417 4.72208C112.46 4.72208 118.418 4.17223 96.5222 4.59403C91.0087 4.69948 91.905 4.51871 91.5736 6.3189C91.2045 8.28479 91.7468 8.54089 90.956 9.23384C90.6396 9.505 88.0109 9.23384 87.0618 9.61045C86.1128 9.98706 86.4065 34.2933 86.4819 34.2933ZM140.081 37.1932C140.676 43.2868 138.732 41.6146 135.75 41.8632C135.147 41.9084 135.712 43.8291 135.26 45.1999C134.808 46.5708 133 46.3599 131.351 46.3599C111.489 46.2845 111.813 46.1339 111.496 46.5708C109.056 49.9151 105.282 53.9523 105.772 53.9222C107.647 53.8016 109.816 52.4835 110.291 52.958C110.961 53.6133 97.1399 68.0224 96.108 66.4707C95.7163 65.8682 101.825 58.8331 102.337 57.8464C102.051 57.8012 101.087 58.2532 98.571 58.5469C96.5524 58.7804 100.077 56.2873 104.906 47.5424C105.44 46.5783 105.824 46.0887 104.943 46.036C92.4549 45.7272 91.1292 47.1658 90.7677 44.2057C90.5342 42.3076 91.0238 41.5242 90.3233 41.5242C84.1996 41.5242 85.4349 42.3377 85.4274 12.2316C85.4274 8.63127 85.5253 8.46556 89.9467 8.46556C90.7451 8.46556 90.1877 7.83286 90.4814 6.02514C90.9484 3.20058 92.1385 3.90107 94.0818 3.87094C105.177 3.75043 110.314 3.75043 115.39 3.80316C135.155 4.05172 135.418 2.56788 135.087 8.39024C135.027 9.45228 139.395 7.97597 139.907 10.0549C140.42 12.1337 139.757 33.8791 140.081 37.1932Z" fill="black"/>
<path d="M128.49 24.4637C131.359 28.0188 127.322 31.5816 125.725 30.6777C125.65 30.6777 122.223 30.6777 122.23 27.13C122.23 23.3338 126.795 22.3622 128.49 24.4637Z" fill="black"/>
<path d="M113.764 23.2812C114.586 23.4594 115.32 23.9203 115.838 24.5837C116.355 25.247 116.624 26.0708 116.596 26.9117C116.614 27.7171 116.365 28.5058 115.887 29.1545C115.41 29.8033 114.731 30.2755 113.956 30.4975C113.182 30.7195 112.356 30.6788 111.607 30.3816C110.858 30.0844 110.229 29.5476 109.817 28.855C108.236 26.4371 110.593 22.4752 113.764 23.2812Z" fill="black"/>
<path d="M97.0649 25.2775C99.3848 21.0067 106.729 24.5845 102.601 29.7968C101.916 30.6554 99.769 31.2279 97.8407 29.9324C97.2003 29.3611 96.7742 28.5881 96.6331 27.7415C96.4921 26.895 96.6444 26.0256 97.0649 25.2775Z" fill="black"/>
<path d="M77.6851 48.3252C77.3687 48.3252 78.9957 61.6722 76.0958 64.2482C75.1317 65.1069 45.1311 65.1747 43.1803 64.6173C41.5081 64.1352 41.0336 62.094 40.8152 60.3616C40.6344 58.9832 40.1147 46.5552 41.252 46.0505C42.2463 44.2654 49.7558 44.8002 66.545 44.5441C76.7436 44.3181 77.4516 44.883 77.6851 48.3252ZM76.6833 59.164C77.1277 55.0063 76.6833 48.6567 76.7436 48.619C76.6607 47.4666 76.5703 46.3593 75.7493 46.0204C73.8286 45.2672 50.8932 45.4931 45.4776 45.7116C41.2596 45.8773 40.8227 45.109 41.5458 58.5163C41.8471 64.0976 41.1918 61.9359 73.5273 61.8379C76.1711 62.0112 76.5025 60.8211 76.6833 59.164ZM75.6288 63.254C75.7792 63.1633 75.9069 63.0395 76.0022 62.892C76.0975 62.7445 76.1578 62.5772 76.1787 62.4028C64.4963 63.1561 44.2272 63.3971 42.4722 62.6213C42.1634 62.4857 42.2312 63.9997 44.7319 64.0524C47.0819 64.1202 73.6328 64.4441 75.6288 63.254Z" fill="black"/>
<path d="M71.1328 53.6732C71.3889 53.8615 71.3738 54.1553 71.4718 54.4264C70.3419 57.6427 69.536 53.4096 66.1993 54.2306C64.0451 54.7654 64.4141 56.6786 63.1864 55.8576C62.4332 55.3454 62.0415 55.1043 62.4332 54.4641C64.851 51.4738 67.4873 50.9466 71.1328 53.6732Z" fill="black"/>
<path d="M99.9956 119.535C99.6328 117.641 98.7334 115.892 97.4046 114.496C96.7116 114.006 96.9075 113.592 96.4329 112.854C94.693 110.127 93.9398 111.52 94.5574 109.359C94.6252 109.125 96.7418 109.027 96.9828 106.956C97.3895 103.574 95.981 95.7555 94.0754 94.573C92.4258 93.5561 93.9925 93.88 91.5069 86.7546C91.2433 86.0014 92.8552 86.7546 91.8609 84.4498C86.2796 71.4493 81.9411 74.9818 81.4665 74.1307C80.992 73.2796 80.7133 73.5432 80.4196 73.2494C78.9734 71.9614 76.6535 71.969 79.6663 71.743C80.1183 71.6888 80.5627 71.5856 80.992 71.4342C83.2516 71.3212 82.9504 67.879 83.0031 65.5365C83.0031 65.1524 83.5379 65.1599 83.922 65.1825C84.9012 65.2352 85.4812 64.1431 85.4284 63.2994C85.4284 62.8927 85.7147 62.9228 86.0235 62.7119C86.8294 62.147 86.7767 48.7021 86.6562 48.1598C86.3775 47.1731 86.0084 47.8585 86.0009 47.158C86.0009 45.6968 84.9313 45.1243 83.4701 45.0114C82.4457 44.9285 83.4701 39.7388 75.8325 34.4663C70.4018 30.7003 52.3924 29.239 44.8527 35.099C37.313 40.9591 38.4955 45.388 37.9382 45.4482C36.1756 45.6365 35.3998 46.0809 34.8726 48.3556C34.4206 50.3215 34.044 64.8285 36.0627 65.2277C36.2962 65.2729 36.62 65.6947 37.3055 65.6871C38.247 65.6871 36.6652 70.4173 39.2337 71.2158C40.7459 71.6684 42.2965 71.9811 43.866 72.1497C44.6795 72.2175 41.3728 73.5809 40.7175 73.6562C37.8327 73.7993 30.9107 81.3314 32.0329 82.1525C32.6657 82.6345 32.515 82.9057 30.7374 84.5853C30.3985 83.7794 30.2252 73.5357 26.4215 72.3305C25.4197 72.0142 24.7945 73.0837 24.5008 71.5773C24.3652 70.8919 25.4046 70.327 25.3293 68.3083C26.529 66.4392 27.0305 64.2066 26.7454 62.0039C26.7002 61.552 26.6173 60.1359 25.6005 59.9552C23.7777 59.4957 24.0338 63.8192 23.1601 63.5329C20.102 62.5236 23.1601 56.6486 20.4259 56.6335C18.6257 56.6335 18.219 61.1076 17.9553 61.0624C17.8273 61.0624 17.7595 59.202 17.5486 58.2755C17.5172 58.0765 17.4361 57.8887 17.3128 57.7294C17.1895 57.57 17.0281 57.4444 16.8433 57.364C16.6586 57.2837 16.4566 57.2512 16.256 57.2697C16.0554 57.2881 15.8627 57.3569 15.6957 57.4696C13.8202 58.8404 14.5282 64.0075 14.3399 64.1054C14.0612 63.7288 12.6301 60.9494 12.0803 60.844C9.76788 60.4071 10.1294 65.1373 12.9314 68.1803C13.1423 68.3686 13.2553 68.3987 13.2703 68.7603C13.4285 72.8352 16.9234 72.6695 16.833 73.8369C16.6598 76.0137 15.5601 74.4169 14.7617 76.8498C13.9633 79.2827 16.7201 85.5871 18.2416 88.0878C20.1999 91.2965 20.3882 89.6997 20.8929 90.9048C21.5279 92.6804 22.6729 94.2289 24.1844 95.3563C29.1105 99.0245 32.8766 95.5672 37.2904 91.3794C39.8664 89.2703 39.6781 88.5322 40.1225 88.7808C41.3578 89.4587 41.0866 88.7808 41.7344 88.6602C43.3237 86.845 41.8925 88.3891 45.7791 93.4281C46.457 94.3018 48.2422 95.6878 49.3343 95.6124C49.5452 95.6124 49.5904 95.6124 49.6055 95.7857C49.6808 96.5389 51.1119 100.9 50.9387 101.058C50.8558 101.126 49.4322 102.678 49.7411 104.109C49.839 104.531 49.3419 104.696 49.1008 105.246C48.9351 105.608 48.6866 105.901 48.5058 106.248C48.4079 106.421 48.3401 106.429 48.1744 106.316C43.2257 103.047 34.6165 126.991 38.0662 130.863C38.7215 131.616 38.7516 131.466 38.5859 131.744C38.1812 132.422 37.9502 133.189 37.9134 133.977C37.8766 134.766 38.0352 135.551 38.375 136.264C38.7968 136.911 36.4769 137.13 34.7747 143.894C34.735 144.241 34.6644 144.583 34.5638 144.918C34.6466 145.837 34.1646 145.49 34.6014 146.424C34.8048 146.831 35.43 146.673 35.4224 146.424C35.4224 145.746 36.8611 141.431 36.8611 141.416C37.1712 139.923 37.9434 138.566 39.068 137.536C39.2337 137.393 42.5177 139.909 45.7264 139.126C49.4925 138.192 49.4096 136.663 49.9294 137.793C51.4358 141.054 51.4358 146.342 51.8576 146.485C53.7632 147.185 52.0082 141.212 51.5187 139.178C50.7654 136.166 49.9294 136.776 50.9462 135.864C52.1664 134.757 51.3755 133.477 52.2116 133.318C56.4823 132.475 56.0907 118.887 55.4203 116.906C55.3299 116.635 56.4823 113.893 56.6481 113.961C58.9077 115.422 59.1035 115.377 60.5798 115.527C67.0048 116.19 66.5604 112.816 67.419 113.705C67.5245 113.818 67.6902 114.051 67.7806 114.074C68.338 114.179 66.5453 115.58 66.5227 118.774C66.5227 121.787 65.8222 129.567 67.8333 131.187C69.5808 132.588 69.0987 131.684 69.3397 132.897C69.641 134.734 70.7407 134.493 70.3641 135.088C67.6525 139.367 67.291 146.025 67.6375 146.349C67.8032 146.515 68.0442 146.455 68.2325 146.439C68.9857 146.364 67.8634 142.794 70.8161 136.369C71.381 135.126 71.2002 136.271 73.5276 137.054C76.0057 137.89 79.0487 136.768 80.4497 135.646C81.0071 135.201 81.9561 137.838 82.1294 138.531C83.7262 143.803 82.9579 145.897 83.7488 146.515C85.3305 147.735 83.696 138.877 81.9034 135.277C81.5569 134.576 81.1878 134.742 81.4891 134.275C81.6187 134.104 81.7204 133.913 81.7904 133.71C82.6189 130.042 81.1276 130.2 81.7904 129.658C83.9747 127.76 82.5964 123.888 82.4005 121.372C82.0917 117.365 79.2069 103.981 75.1922 105.465C75.0491 105.517 75.0341 105.465 74.5369 104.877C73.7837 103.996 73.7159 104.064 73.731 103.943C73.844 103.45 73.8801 102.941 73.8364 102.437C73.6531 101.609 73.2407 100.849 72.6464 100.245C71.4864 99.2881 71.8932 99.8229 72.315 97.9248C72.9175 95.3488 72.6539 95.5748 73.023 95.522C74.793 95.2735 77.6327 92.1024 78.5591 90.6864C79.9601 88.5397 80.1861 87.0032 80.4346 87.425C81.9411 89.9181 81.9411 91.191 83.2291 90.6412C84.0877 90.2571 85.1723 96.1096 84.615 96.3204C82.9127 97.2318 82.054 111.046 86.2495 110.33C86.6261 110.27 86.7466 110.074 86.8219 110.443C87.1006 111.867 86.1892 111.543 85.7599 113.305C85.3682 114.925 82.8976 118.518 83.6283 121.131C83.9672 122.367 84.7129 122.547 85.2853 122.193C86.2495 121.591 85.8954 120.958 86.8671 119.241C87.0479 118.932 87.5525 119.783 88.3735 119.934C89.8348 120.205 89.413 119.753 90.1059 123.572C90.3469 124.89 90.1059 125.831 91.1981 126.095C93.4577 127.014 93.1113 119.994 93.3824 121.274C93.5481 122.065 93.7665 123.014 93.9549 123.73C94.4896 125.658 95.7098 125.236 96.1618 124.528C97.864 121.945 94.7081 115.558 97.7134 120.356C98.5871 121.854 100.372 121.516 99.9956 119.535ZM37.3281 55.3681C37.1849 60.4598 37.7574 64.5121 37.4561 64.5046C36.4995 64.5046 36.1907 63.8945 36.0024 62.9454C35.4751 60.3996 35.0533 49.5231 36.1907 47.3539C36.5974 46.6006 37.8854 45.9454 37.8101 46.8116C37.893 46.7287 37.5616 47.1053 37.3281 55.3681ZM86.0235 51.6623C86.0988 51.6623 85.8728 60.2489 85.7523 61.1151C85.6695 61.7629 85.4284 62.3353 84.7882 62.1922C84.035 62.019 84.035 61.1904 84.035 60.3167C84.0727 56.5958 83.7638 48.672 84.8259 48.2653C86.2118 47.738 86.0687 48.8754 86.0235 51.6623ZM82.2574 46.1487C84.6225 44.7854 85.8126 47.3765 84.8334 47.4443C84.5596 47.4534 84.2959 47.5497 84.0805 47.719C83.8651 47.8883 83.7093 48.1219 83.6358 48.3858C83.1236 49.9977 82.7997 60.4372 83.568 62.2901C83.9371 63.1714 84.7505 62.8626 84.6225 63.3371C84.4267 64.0451 84.6225 64.3765 82.4156 64.1506C80.6229 64.0075 80.8263 57.9817 80.8263 56.159C80.8263 50.201 80.6229 47.1053 82.2951 46.1487H82.2574ZM41.772 68.6247C38.2696 69.0766 38.9249 70.2516 38.714 67.6003C38.6085 66.3048 38.5709 60.8214 38.4579 56.9574C38.2395 49.7868 38.2018 43.053 42.9772 38.127C52.2417 28.5912 77.8887 30.2408 81.3912 42.8722C82.0239 45.1319 82.1444 45.1319 81.3912 45.629C80.2764 46.4952 80.1936 47.6476 80.0505 48.7021C79.7944 50.6304 79.0939 64.2334 81.5569 64.9716C81.5974 64.9774 81.636 64.9924 81.6697 65.0155C81.7034 65.0387 81.7313 65.0692 81.7512 65.1049C81.7715 65.1405 81.7834 65.1801 81.7863 65.2209C81.7892 65.2617 81.7829 65.3026 81.7678 65.3407C81.7226 65.5666 81.8205 68.6172 81.6925 68.9109C81.0749 70.2968 82.0164 68.813 76.0358 68.6925C75.0642 68.6548 51.1044 67.4195 41.772 68.6247ZM51.4057 70.1311C51.4057 69.0842 51.9103 69.747 52.7539 69.4532C52.7991 69.4532 58.0942 69.2273 58.5311 69.3553C59.1412 69.5361 68.1497 69.1444 68.1497 69.762C68.1497 71.1706 68.2325 71.2685 67.999 71.3739C61.9733 74.1458 50.2683 72.21 51.4283 71.615C51.4584 71.5924 51.4057 70.1311 51.4057 70.1161V70.1311ZM24.9753 61.0925C25.2992 59.684 26.6625 61.4691 25.9394 64.7381C25.608 66.2445 25.0582 68.5042 23.7551 67.4421C22.0453 66.2671 24.1317 64.7607 24.9753 61.1151V61.0925ZM18.7613 61.7478C19.2735 57.5825 20.6217 56.9046 20.8703 57.7482C20.9087 58.4638 20.9087 59.1794 20.8703 59.8949C20.7874 63.0208 21.3072 63.0885 20.4786 63.1036C18.9195 63.1111 18.46 64.2184 18.7613 61.7478ZM15.4396 59.4882C15.7559 57.688 16.7125 57.9817 16.8255 58.5994C17.0364 59.7669 17.0665 62.6517 17.4055 63.5329C17.639 64.1355 16.592 64.0301 15.4321 65.0921C15.2287 65.2352 14.95 62.2525 15.4396 59.4882ZM13.195 67.0203C10.3629 63.1789 11.5304 60.9946 12.1631 62.1018C12.1631 62.1018 13.4059 64.4368 13.9482 65.3105C14.3926 66.0186 14.6186 65.5892 13.8729 66.5759C13.4586 67.0203 13.4436 67.3819 13.195 67.0203ZM15.0931 71.1329C11.1538 66.9751 19.1981 63.1563 21.9399 63.9924C23.8756 64.5799 22.0076 64.7456 22.3843 66.945C22.8437 68.4514 24.5159 68.3912 24.4782 69.054C24.4782 67.6078 25.6306 72.7372 18.0307 72.677C16.8911 72.5534 15.8411 72.0015 15.0931 71.1329ZM23.8304 73.4528C22.324 74.7031 17.5787 76.0439 17.6842 74.3039C17.4432 73.144 19.2961 74.2587 22.8211 72.6469C23.3936 72.3832 23.74 72.0594 23.9057 72.4962C24.1844 73.2118 24.1317 73.1967 23.8304 73.4528ZM17.2624 75.6371C17.398 75.6371 21.744 76.8498 25.0054 73.6336C28.1388 70.5454 29.9239 83.2898 29.811 84.7812C29.5775 87.8844 24.0263 90.4002 20.9908 89.7298C18.8592 89.2628 12.713 75.9158 17.2624 75.6371ZM30.5642 95.3337C29.8712 95.562 29.1572 95.7209 28.4326 95.8083C25.3821 95.8083 22.9341 93.2247 22.1583 91.0103C22.0528 90.709 22.4822 90.7542 23.74 90.5734C29.7658 89.7298 32.5979 82.3408 33.8331 83.3576C35.5806 84.7887 38.5633 87.9673 38.714 88.5247C38.7516 89.0143 31.8748 95.1002 30.5642 95.3337ZM42.0583 86.8751C41.9829 86.8751 40.8682 87.9146 40.7477 87.8468C40.3937 87.6434 34.511 81.6704 33.0799 81.6101C31.8823 81.5574 41.6892 72.0443 40.2731 75.3132C38.8571 78.5822 42.5102 86.5362 42.0583 86.8751ZM52.5581 93.0289C55.1793 90.483 56.0003 89.1423 59.7061 88.8937C64.4966 89.3381 67.7128 94.3696 71.1249 95.8535C71.2981 95.9288 71.5165 95.9589 71.5241 96.1924C71.5241 97.2168 71.0721 100.32 70.2737 100.855C69.3533 101.43 68.3534 101.866 67.3061 102.15C64.7903 102.512 54.637 102.534 53.0627 101.691C51.8501 101.043 51.948 100.501 51.3529 98.678C50.2231 95.2584 50.3813 95.153 52.5581 93.0289ZM39.196 135.563C38.8646 135.096 38.5859 132.121 40.0999 131.661C46.0202 129.891 51.0065 133.251 50.773 134.185C50.193 136.61 41.8549 139.329 39.196 135.563ZM54.7048 121.252C54.7048 121.523 54.4487 129.839 53.2887 131.164C52.302 132.294 52.2116 132.053 51.1119 132.535C51.0689 132.562 51.0177 132.572 50.9679 132.563C50.9181 132.555 50.8729 132.529 50.8408 132.49C49.5076 131.187 45.621 129.944 43.4517 130.147C39.6856 130.494 39.8061 131.142 39.3617 130.539C38.4428 129.289 37.6143 128.664 38.7592 123.67C38.7592 123.67 39.7233 120.393 39.7233 120.378C40.6723 116.71 45.5231 104.877 48.0087 107.438C50.8332 110.285 55.1944 116.778 54.7198 121.252H54.7048ZM54.9458 114.706C54.8931 114.842 54.9458 115.023 54.7801 115.121C54.6144 115.219 53.0176 112.304 52.9799 112.228C52.5804 111.756 52.2202 111.253 51.9028 110.722C49.259 106.481 48.9577 107.799 49.7185 106.203C49.8691 105.879 53.7783 111.392 55.3902 112.884C55.6387 113.08 55.5408 113.321 54.9609 114.684L54.9458 114.706ZM80.6681 133.793C76.6008 138.116 68.5112 133.642 70.3792 132.113C73.505 129.567 77.5724 128.942 80.4422 130.095C81.572 130.516 81.0523 133.386 80.6832 133.77L80.6681 133.793ZM77.4594 107.965C80.9694 113.516 81.7678 126.291 81.8431 126.291C81.8431 128.46 81.1351 128.882 81.1652 128.807C80.299 129.726 80.7962 128.844 78.5666 128.694C72.6916 127.865 70.7407 132.098 68.8878 130.667C66.8993 129.123 67.5923 124.551 67.3136 123.73C67.2911 123.618 67.2911 123.503 67.3136 123.391C67.6375 117.237 66.7186 117.298 71.7048 110.3C75.3504 105.239 76.1865 105.909 77.4745 107.943L77.4594 107.965ZM73.2188 104.997C74.891 106.504 73.8892 105.291 70.6654 110.21C69.9909 111.25 69.2644 112.256 68.4886 113.223C68.2219 113.037 67.9701 112.83 67.7354 112.605C67.4642 112.296 72.3376 104.161 73.2339 104.975L73.2188 104.997ZM72.6388 103.175C70.2662 104.38 66.9295 112.635 65.5737 113.539C62.606 115.52 61.2653 114.405 60.4518 114.503C57.1 114.887 52.0685 107.152 50.7956 103.958C50.5018 103.205 50.7202 102.798 51.3906 102.03C51.7973 101.563 51.2475 102.572 54.6068 103.017C57.1904 103.551 69.6712 104.131 71.4939 100.998C71.9007 100.29 73.1962 102.881 72.6388 103.175ZM72.5033 94.4073C67.2985 91.9819 64.3836 86.5964 56.6857 88.2309C52.6184 89.0896 49.9068 94.8291 49.2138 94.6408C44.4685 93.3829 40.2581 79.6141 41.2222 75.8706C41.9754 73.1139 48.8447 71.8485 49.4096 71.6526C49.7034 71.5321 49.9444 71.7129 50.1629 71.969C51.5864 74.3039 60.7079 74.2286 63.8187 73.8144C70.4244 72.9482 70.0779 70.3571 70.9968 70.6207C71.2605 70.7036 73.3695 70.8165 77.8662 72.9707C78.062 73.0687 79.0487 73.3624 78.9583 73.6486C78.9583 73.724 74.5369 77.5352 76.1413 88.6452C76.3213 89.3547 76.6971 89.9994 77.2259 90.5056C77.5046 90.8898 73.7837 94.9948 72.5033 94.3998V94.4073ZM78.2578 89.1348C78.1976 89.2477 77.8285 89.6922 77.7381 89.6319C74.9286 87.9447 77.6778 71.2986 80.751 74.658C80.9995 74.9291 78.1976 75.961 78.4537 80.292C78.8227 87.2065 80.766 84.6531 78.2578 89.0896V89.1348ZM83.2291 89.421C82.9956 89.647 82.7847 89.6394 82.6039 89.3607C80.2011 85.7378 77.6628 78.9438 80.9694 75.946C84.4945 72.7523 89.6841 80.9398 91.0248 85.0749C91.1228 85.3536 91.2282 85.557 90.701 85.7754C90.6256 85.8056 85.0217 87.7112 83.2291 89.3758V89.421ZM84.3137 90.0236C84.9999 89.4663 85.7604 89.0075 86.5733 88.6602C91.0926 86.5286 90.5051 86.5211 91.1981 88.3514C91.1981 88.3514 91.7329 90.0386 91.8986 90.7241C92.7648 94.3621 92.5388 94.0382 91.6199 94.0382C90.4599 94.0382 89.9402 94.3847 88.6748 94.6107C85.0066 95.266 85.7071 96.7121 85.3004 93.8574C84.7807 90.37 83.8919 90.2646 84.3137 89.9784V90.0236ZM86.4453 109.02C83.6358 110.436 83.9898 103.574 84.2384 100.441C84.4719 97.503 84.6602 97.3298 85.5565 96.7874C86.4528 96.2451 90.4675 95.0249 92.1396 95.0852C93.646 95.1379 93.8645 95.153 94.7985 97.4955C96.1844 100.983 97.3669 109.509 94.1281 108.229C90.5051 106.752 88.0798 108.153 86.4453 108.974V109.02ZM93.7289 109.396C93.6159 110.903 93.4879 109.976 91.7103 110.029C90.7999 110.078 89.894 110.189 88.9987 110.36C88.2982 110.458 87.7559 111.031 87.6806 110.722C87.5789 110.381 87.5157 110.03 87.4923 109.675C88.2907 108.447 93.8419 107.897 93.7289 109.351V109.396ZM86.1967 118.683C85.7834 119.476 85.426 120.297 85.1272 121.139C84.035 123.067 84.0877 117.614 85.549 116.153C85.549 116.243 85.6092 116.341 85.6318 116.439C85.9934 118.239 86.4152 118.284 86.1817 118.638L86.1967 118.683ZM91.4692 125.093C90.8064 125.048 90.8893 122.178 90.5804 121.011C90.2716 119.843 90.4147 120.258 91.7555 119.994C92.1923 119.889 92.2601 119.926 92.2752 120.393C92.2677 121.252 92.343 125.108 91.424 125.018L91.4692 125.093ZM95.6345 124.001C94.8135 125.364 94.6855 123.052 93.8268 119.738C93.759 119.482 93.7741 119.391 93.9247 119.376C94.6177 119.301 95.0771 118.48 95.3106 118.962C95.7927 120.024 96.1768 122.984 95.5893 123.956L95.6345 124.001ZM95.8605 116.635C94.693 117.802 96.1015 117.682 92.4635 118.714C91.4263 119.079 90.3319 119.255 89.2322 119.233C85.8653 118.864 85.3456 112.213 89.0589 111.287C93.4125 110.202 94.3767 111.792 95.1374 112.59C95.654 113.102 95.9972 113.764 96.1187 114.481C96.2403 115.198 96.1342 115.936 95.8153 116.589L95.8605 116.635ZM98.5871 120.28C96.576 117.358 96.674 117.395 96.7418 117.185C97.2389 115.994 96.8924 114.548 98.5344 117.411C100.033 120.039 99.0918 121.033 98.5419 120.235L98.5871 120.28Z" fill="black"/>
<path d="M53.6876 54.8709C53.5219 55.0743 53.3336 55.255 53.1679 55.4584C52.4147 56.4075 50.9083 53.0406 47.8954 54.4792C46.6451 55.0893 46.5773 56.5581 45.6358 55.8426C45.0407 55.3982 44.3628 55.0893 44.8223 54.4642C48.0837 49.3498 54.953 53.2891 53.6876 54.8709Z" fill="black"/>
</svg>
