<svg width="128" height="32" viewBox="0 0 128 32" fill="none" xmlns="http://www.w3.org/2000/svg">
<path d="M27 9H5C4.44772 9 4 9.44772 4 10V25C4 25.5523 4.44772 26 5 26H27C27.5523 26 28 25.5523 28 25V10C28 9.44772 27.5523 9 27 9Z" stroke="black" stroke-width="2" stroke-linecap="round" stroke-linejoin="round"/>
<path d="M10 3L16 9L22 3" stroke="black" stroke-width="2" stroke-linecap="round" stroke-linejoin="round"/>
<path d="M23.5 16C24.3284 16 25 15.3284 25 14.5C25 13.6716 24.3284 13 23.5 13C22.6716 13 22 13.6716 22 14.5C22 15.3284 22.6716 16 23.5 16Z" fill="black"/>
<path d="M23.5 22C24.3284 22 25 21.3284 25 20.5C25 19.6716 24.3284 19 23.5 19C22.6716 19 22 19.6716 22 20.5C22 21.3284 22.6716 22 23.5 22Z" fill="black"/>
<path d="M19 26V9" stroke="black" stroke-width="2" stroke-linecap="round" stroke-linejoin="round"/>
<path d="M49.0195 8.758V18.796C49.0195 20.35 48.5785 21.547 47.6965 22.387C46.8285 23.227 45.6525 23.647 44.1685 23.647C42.6145 23.647 41.3685 23.206 40.4305 22.324C39.4925 21.442 39.0235 20.189 39.0235 18.565H42.5935C42.5935 19.181 42.7195 19.65 42.9715 19.972C43.2235 20.28 43.5875 20.434 44.0635 20.434C44.4975 20.434 44.8335 20.294 45.0715 20.014C45.3095 19.734 45.4285 19.328 45.4285 18.796V8.758H49.0195ZM57.2542 23.668C56.1062 23.668 55.0702 23.423 54.1462 22.933C53.2362 22.443 52.5152 21.743 51.9832 20.833C51.4652 19.923 51.2062 18.859 51.2062 17.641C51.2062 16.437 51.4722 15.38 52.0042 14.47C52.5362 13.546 53.2642 12.839 54.1882 12.349C55.1122 11.859 56.1482 11.614 57.2962 11.614C58.4442 11.614 59.4802 11.859 60.4042 12.349C61.3282 12.839 62.0562 13.546 62.5882 14.47C63.1202 15.38 63.3862 16.437 63.3862 17.641C63.3862 18.845 63.1132 19.909 62.5672 20.833C62.0352 21.743 61.3002 22.443 60.3622 22.933C59.4382 23.423 58.4022 23.668 57.2542 23.668ZM57.2542 20.56C57.9402 20.56 58.5212 20.308 58.9972 19.804C59.4872 19.3 59.7322 18.579 59.7322 17.641C59.7322 16.703 59.4942 15.982 59.0182 15.478C58.5562 14.974 57.9822 14.722 57.2962 14.722C56.5962 14.722 56.0152 14.974 55.5532 15.478C55.0912 15.968 54.8602 16.689 54.8602 17.641C54.8602 18.579 55.0842 19.3 55.5322 19.804C55.9942 20.308 56.5682 20.56 57.2542 20.56ZM68.8823 13.441C69.2183 12.895 69.7013 12.454 70.3313 12.118C70.9613 11.782 71.6823 11.614 72.4943 11.614C73.4603 11.614 74.3353 11.859 75.1193 12.349C75.9033 12.839 76.5193 13.539 76.9673 14.449C77.4293 15.359 77.6603 16.416 77.6603 17.62C77.6603 18.824 77.4293 19.888 76.9673 20.812C76.5193 21.722 75.9033 22.429 75.1193 22.933C74.3353 23.423 73.4603 23.668 72.4943 23.668C71.6683 23.668 70.9473 23.507 70.3313 23.185C69.7153 22.849 69.2323 22.408 68.8823 21.862V23.5H65.2913V7.96H68.8823V13.441ZM74.0063 17.62C74.0063 16.724 73.7543 16.024 73.2503 15.52C72.7603 15.002 72.1513 14.743 71.4233 14.743C70.7093 14.743 70.1003 15.002 69.5963 15.52C69.1063 16.038 68.8613 16.745 68.8613 17.641C68.8613 18.537 69.1063 19.244 69.5963 19.762C70.1003 20.28 70.7093 20.539 71.4233 20.539C72.1373 20.539 72.7463 20.28 73.2503 19.762C73.7543 19.23 74.0063 18.516 74.0063 17.62ZM84.5002 23.647C83.5342 23.647 82.6662 23.479 81.8962 23.143C81.1402 22.793 80.5452 22.317 80.1112 21.715C79.6772 21.099 79.4532 20.392 79.4392 19.594H81.4762C81.5462 20.28 81.8262 20.861 82.3162 21.337C82.8202 21.799 83.5482 22.03 84.5002 22.03C85.4102 22.03 86.1242 21.806 86.6422 21.358C87.1742 20.896 87.4402 20.308 87.4402 19.594C87.4402 19.034 87.2862 18.579 86.9782 18.229C86.6702 17.879 86.2852 17.613 85.8232 17.431C85.3612 17.249 84.7382 17.053 83.9542 16.843C82.9882 16.591 82.2112 16.339 81.6232 16.087C81.0492 15.835 80.5522 15.443 80.1322 14.911C79.7262 14.365 79.5232 13.637 79.5232 12.727C79.5232 11.929 79.7262 11.222 80.1322 10.606C80.5382 9.99 81.1052 9.514 81.8332 9.178C82.5752 8.842 83.4222 8.674 84.3742 8.674C85.7462 8.674 86.8662 9.017 87.7342 9.703C88.6162 10.389 89.1132 11.299 89.2252 12.433H87.1252C87.0552 11.873 86.7612 11.383 86.2432 10.963C85.7252 10.529 85.0392 10.312 84.1852 10.312C83.3872 10.312 82.7362 10.522 82.2322 10.942C81.7282 11.348 81.4762 11.922 81.4762 12.664C81.4762 13.196 81.6232 13.63 81.9172 13.966C82.2252 14.302 82.5962 14.561 83.0302 14.743C83.4782 14.911 84.1012 15.107 84.8992 15.331C85.8652 15.597 86.6422 15.863 87.2302 16.129C87.8182 16.381 88.3222 16.78 88.7422 17.326C89.1622 17.858 89.3722 18.586 89.3722 19.51C89.3722 20.224 89.1832 20.896 88.8052 21.526C88.4272 22.156 87.8672 22.667 87.1252 23.059C86.3832 23.451 85.5082 23.647 84.5002 23.647ZM107.514 11.992L103.923 23.5H101.949L99.1774 14.365L96.4054 23.5H94.4314L90.8194 11.992H92.7724L95.4184 21.652L98.2744 11.992H100.227L103.02 21.673L105.624 11.992H107.514ZM110.398 10.123C110.034 10.123 109.726 9.997 109.474 9.745C109.222 9.493 109.096 9.185 109.096 8.821C109.096 8.457 109.222 8.149 109.474 7.897C109.726 7.645 110.034 7.519 110.398 7.519C110.748 7.519 111.042 7.645 111.28 7.897C111.532 8.149 111.658 8.457 111.658 8.821C111.658 9.185 111.532 9.493 111.28 9.745C111.042 9.997 110.748 10.123 110.398 10.123ZM111.322 11.992V23.5H109.411V11.992H111.322ZM119.262 13.567H116.847V23.5H114.936V13.567H113.445V11.992H114.936V11.173C114.936 9.885 115.265 8.947 115.923 8.359C116.595 7.757 117.666 7.456 119.136 7.456V9.052C118.296 9.052 117.701 9.22 117.351 9.556C117.015 9.878 116.847 10.417 116.847 11.173V11.992H119.262V13.567ZM123.821 13.567V20.35C123.821 20.91 123.94 21.309 124.178 21.547C124.416 21.771 124.829 21.883 125.417 21.883H126.824V23.5H125.102C124.038 23.5 123.24 23.255 122.708 22.765C122.176 22.275 121.91 21.47 121.91 20.35V13.567H120.419V11.992H121.91V9.094H123.821V11.992H126.824V13.567H123.821Z" fill="black"/>
</svg>
