<svg width="29" height="29" viewBox="0 0 29 29" fill="none" xmlns="http://www.w3.org/2000/svg">
<g clip-path="url(#clip0_201_86500)">
<path d="M13.9804 25.9399C20.5195 25.9399 25.9335 20.5142 25.9335 13.9868C25.9335 7.44775 20.5078 2.03369 13.9687 2.03369C7.4414 2.03369 2.02734 7.44775 2.02734 13.9868C2.02734 20.5142 7.45312 25.9399 13.9804 25.9399ZM13.9804 23.9478C8.44922 23.9478 4.03125 19.5181 4.03125 13.9868C4.03125 8.45557 8.4375 4.02588 13.9687 4.02588C19.5 4.02588 23.9414 8.45557 23.9414 13.9868C23.9414 19.5181 19.5117 23.9478 13.9804 23.9478ZM13.9804 24.9439C15 24.9439 15.9843 24.8032 16.9101 24.5103V9.979C16.9101 9.18213 16.4531 8.65478 15.6796 8.65478H7.8164C7.05468 8.65478 6.58593 9.18213 6.58593 9.979V21.6743C8.40234 23.6899 11.0273 24.9439 13.9804 24.9439ZM9.33984 21.8149C9.17578 21.8149 9.07031 21.6978 9.07031 21.5337V20.2915C9.07031 20.1275 9.17578 20.0103 9.33984 20.0103H10.6172C10.7695 20.0103 10.8984 20.1275 10.8984 20.2915V21.5337C10.8984 21.6978 10.7695 21.8149 10.6172 21.8149H9.33984ZM12.8554 21.8149C12.6914 21.8149 12.5859 21.6978 12.5859 21.5337V20.2915C12.5859 20.1275 12.6914 20.0103 12.8554 20.0103H14.1328C14.2968 20.0103 14.414 20.1275 14.414 20.2915V21.5337C14.414 21.6978 14.2968 21.8149 14.1328 21.8149H12.8554ZM9.33984 18.7212C9.17578 18.7212 9.07031 18.604 9.07031 18.4399V17.1978C9.07031 17.0454 9.17578 16.9165 9.33984 16.9165H10.6172C10.7695 16.9165 10.8984 17.0454 10.8984 17.1978V18.4399C10.8984 18.604 10.7695 18.7212 10.6172 18.7212H9.33984ZM12.8554 18.7212C12.6914 18.7212 12.5859 18.604 12.5859 18.4399V17.1978C12.5859 17.0454 12.6914 16.9165 12.8554 16.9165H14.1328C14.2968 16.9165 14.414 17.0454 14.414 17.1978V18.4399C14.414 18.604 14.2968 18.7212 14.1328 18.7212H12.8554ZM9.33984 15.6275C9.17578 15.6275 9.07031 15.5103 9.07031 15.3462V14.1157C9.07031 13.9517 9.17578 13.8228 9.33984 13.8228H10.6172C10.7695 13.8228 10.8984 13.9517 10.8984 14.1157V15.3462C10.8984 15.5103 10.7695 15.6275 10.6172 15.6275H9.33984ZM12.8554 15.6275C12.6914 15.6275 12.5859 15.5103 12.5859 15.3462V14.1157C12.5859 13.9517 12.6914 13.8228 12.8554 13.8228H14.1328C14.2968 13.8228 14.414 13.9517 14.414 14.1157V15.3462C14.414 15.5103 14.2968 15.6275 14.1328 15.6275H12.8554ZM9.33984 12.5689C9.17578 12.5689 9.07031 12.4399 9.07031 12.2876V11.0454C9.07031 10.8696 9.17578 10.7642 9.33984 10.7642H10.6172C10.7695 10.7642 10.8984 10.8696 10.8984 11.0454V12.2876C10.8984 12.4399 10.7695 12.5689 10.6172 12.5689H9.33984ZM12.8554 12.5689C12.6914 12.5689 12.5859 12.4399 12.5859 12.2876V11.0454C12.5859 10.8696 12.6914 10.7642 12.8554 10.7642H14.1328C14.2968 10.7642 14.414 10.8696 14.414 11.0454V12.2876C14.414 12.4399 14.2968 12.5689 14.1328 12.5689H12.8554ZM17.8242 24.1939C19.7578 23.3853 21.375 21.9907 22.4531 20.2212V12.9673C22.4531 12.1587 21.9843 11.6431 21.2226 11.6431H17.8242V24.1939ZM19.582 20.4556C19.4414 20.4556 19.3476 20.3618 19.3476 20.2446V19.1782C19.3476 19.061 19.4414 18.9439 19.582 18.9439H20.6835C20.8007 18.9439 20.8945 19.061 20.8945 19.1782V20.2446C20.8945 20.3618 20.8007 20.4556 20.6835 20.4556H19.582ZM19.582 17.7837C19.4414 17.7837 19.3476 17.6899 19.3476 17.5493V16.5064C19.3476 16.3657 19.4414 16.2837 19.582 16.2837H20.6835C20.8007 16.2837 20.8945 16.3657 20.8945 16.5064V17.5493C20.8945 17.6899 20.8007 17.7837 20.6835 17.7837H19.582ZM19.582 15.1118C19.4414 15.1118 19.3476 15.0181 19.3476 14.8775V13.8228C19.3476 13.6939 19.4414 13.6001 19.582 13.6001H20.6835C20.8007 13.6001 20.8945 13.6939 20.8945 13.8228V14.8775C20.8945 15.0181 20.8007 15.1118 20.6835 15.1118H19.582Z" fill="#21BBFF"/>
</g>
<defs>
<clipPath id="clip0_201_86500">
<rect width="23.9062" height="23.918" fill="white" transform="translate(2.02734 2.03369)"/>
</clipPath>
</defs>
</svg>
