<svg width="29" height="29" viewBox="0 0 29 29" fill="none" xmlns="http://www.w3.org/2000/svg">
<g clip-path="url(#clip0_201_86505)">
<path d="M13.9825 25.9517C20.5216 25.9517 25.9356 20.5376 25.9356 13.9985C25.9356 7.47119 20.5099 2.04541 13.9708 2.04541C7.44348 2.04541 2.02942 7.47119 2.02942 13.9985C2.02942 20.5376 7.4552 25.9517 13.9825 25.9517Z" fill="black" fill-opacity="0.85"/>
<path d="M13.9825 23.9595C11.0294 23.9595 8.40442 22.7056 6.58801 20.6899V10.0024C6.58801 9.19385 7.05676 8.6665 7.81848 8.6665H15.6817C16.4552 8.6665 16.9122 9.19385 16.9122 10.0024V23.5259C15.9864 23.8071 15.0021 23.9595 13.9825 23.9595ZM9.34192 21.4751H10.6193C10.7716 21.4751 10.9005 21.3696 10.9005 21.1939V19.9517C10.9005 19.7993 10.7716 19.6704 10.6193 19.6704H9.34192C9.17786 19.6704 9.07239 19.7993 9.07239 19.9517V21.1939C9.07239 21.3696 9.17786 21.4751 9.34192 21.4751ZM12.8575 21.4751H14.1349C14.2989 21.4751 14.4161 21.3696 14.4161 21.1939V19.9517C14.4161 19.7993 14.2989 19.6704 14.1349 19.6704H12.8575C12.6935 19.6704 12.588 19.7993 12.588 19.9517V21.1939C12.588 21.3696 12.6935 21.4751 12.8575 21.4751ZM9.34192 18.4985H10.6193C10.7716 18.4985 10.9005 18.3814 10.9005 18.2173V16.9868C10.9005 16.8228 10.7716 16.7056 10.6193 16.7056H9.34192C9.17786 16.7056 9.07239 16.8228 9.07239 16.9868V18.2173C9.07239 18.3814 9.17786 18.4985 9.34192 18.4985ZM12.8575 18.4985H14.1349C14.2989 18.4985 14.4161 18.3814 14.4161 18.2173V16.9868C14.4161 16.8228 14.2989 16.7056 14.1349 16.7056H12.8575C12.6935 16.7056 12.588 16.8228 12.588 16.9868V18.2173C12.588 18.3814 12.6935 18.4985 12.8575 18.4985ZM9.34192 15.5337H10.6193C10.7716 15.5337 10.9005 15.4048 10.9005 15.2525V14.0103C10.9005 13.8462 10.7716 13.729 10.6193 13.729H9.34192C9.17786 13.729 9.07239 13.8462 9.07239 14.0103V15.2525C9.07239 15.4048 9.17786 15.5337 9.34192 15.5337ZM12.8575 15.5337H14.1349C14.2989 15.5337 14.4161 15.4048 14.4161 15.2525V14.0103C14.4161 13.8462 14.2989 13.729 14.1349 13.729H12.8575C12.6935 13.729 12.588 13.8462 12.588 14.0103V15.2525C12.588 15.4048 12.6935 15.5337 12.8575 15.5337ZM9.34192 12.5806H10.6193C10.7716 12.5806 10.9005 12.4634 10.9005 12.2993V11.0571C10.9005 10.8931 10.7716 10.7759 10.6193 10.7759H9.34192C9.17786 10.7759 9.07239 10.8931 9.07239 11.0571V12.2993C9.07239 12.4634 9.17786 12.5806 9.34192 12.5806ZM12.8575 12.5806H14.1349C14.2989 12.5806 14.4161 12.4634 14.4161 12.2993V11.0571C14.4161 10.8931 14.2989 10.7759 14.1349 10.7759H12.8575C12.6935 10.7759 12.588 10.8931 12.588 11.0571V12.2993C12.588 12.4634 12.6935 12.5806 12.8575 12.5806ZM17.8263 23.1978V11.6665H21.2247C21.9864 11.6665 22.4552 12.1704 22.4552 12.979V19.2368C21.3771 20.9946 19.7599 22.4009 17.8263 23.1978ZM19.5841 20.479H20.6856C20.8028 20.479 20.8966 20.3735 20.8966 20.2564V19.1899C20.8966 19.0728 20.8028 18.9673 20.6856 18.9673H19.5841C19.4435 18.9673 19.3497 19.0728 19.3497 19.1899V20.2564C19.3497 20.3735 19.4435 20.479 19.5841 20.479ZM19.5841 17.7954H20.6856C20.8028 17.7954 20.8966 17.7017 20.8966 17.5728V16.5181C20.8966 16.3892 20.8028 16.2954 20.6856 16.2954H19.5841C19.4435 16.2954 19.3497 16.3892 19.3497 16.5181V17.5728C19.3497 17.7017 19.4435 17.7954 19.5841 17.7954ZM19.5841 15.1235H20.6856C20.8028 15.1235 20.8966 15.0298 20.8966 14.9009V13.8345C20.8966 13.7173 20.8028 13.6118 20.6856 13.6118H19.5841C19.4435 13.6118 19.3497 13.7173 19.3497 13.8345V14.9009C19.3497 15.0298 19.4435 15.1235 19.5841 15.1235Z" fill="white"/>
</g>
<defs>
<clipPath id="clip0_201_86505">
<rect width="23.9062" height="23.918" fill="white" transform="translate(2.02942 2.03369)"/>
</clipPath>
</defs>
</svg>
